HIERARCHY
ROOT root
{
	OFFSET 0.000000 0.000000 0.000000
	CHANNELS 6 Xposition Yposition Zposition Zrotation Yrotation Xrotation
	JOINT lhip
	{
		OFFSET 0.058581 -0.082280 -0.017664
		CHANNELS 3 Zrotation Yrotation Xrotation
		JOINT lknee
		{
			OFFSET 0.043451 -0.386469 0.008037
			CHANNELS 3 Zrotation Yrotation Xrotation
			JOINT lankle
			{
				OFFSET -0.014790 -0.426874 -0.037428
				CHANNELS 3 Zrotation Yrotation Xrotation
				JOINT ltoe
				{
					OFFSET 0.041054 -0.060286 0.122042
					CHANNELS 3 Zrotation Yrotation Xrotation
					End Site
					{
						OFFSET 0.000000 0.000000 0.000000
					}
				}
			}
		}
	}
	JOINT rhip
	{
		OFFSET -0.060310 -0.090513 -0.013543
		CHANNELS 3 Zrotation Yrotation Xrotation
		JOINT rknee
		{
			OFFSET -0.043257 -0.383688 -0.004843
			CHANNELS 3 Zrotation Yrotation Xrotation
			JOINT rankle
			{
				OFFSET 0.019056 -0.420046 -0.034562
				CHANNELS 3 Zrotation Yrotation Xrotation
				JOINT rtoe
				{
					OFFSET -0.034840 -0.062106 0.130323
					CHANNELS 3 Zrotation Yrotation Xrotation
					End Site
					{
						OFFSET 0.000000 0.000000 0.000000
					}
				}
			}
		}
	}
	JOINT lowerback
	{
		OFFSET 0.004439 0.124404 -0.038385
		CHANNELS 3 Zrotation Yrotation Xrotation
		JOINT upperback
		{
			OFFSET 0.004488 0.137956 0.026820
			CHANNELS 3 Zrotation Yrotation Xrotation
			JOINT chest
			{
				OFFSET -0.002265 0.056032 0.002855
				CHANNELS 3 Zrotation Yrotation Xrotation
				JOINT lowerneck
				{
					OFFSET -0.013390 0.211636 -0.033468
					CHANNELS 3 Zrotation Yrotation Xrotation
					JOINT upperneck
					{
						OFFSET 0.010113 0.088937 0.050410
						CHANNELS 3 Zrotation Yrotation Xrotation
						End Site
						{
							OFFSET 0.000000 0.000000 0.000000
						}
					}
				}
				JOINT lclavicle
				{
					OFFSET 0.071702 0.114000 -0.018898
					CHANNELS 3 Zrotation Yrotation Xrotation
					JOINT lshoulder
					{
						OFFSET 0.122921 0.045205 -0.019046
						CHANNELS 3 Zrotation Yrotation Xrotation
						JOINT lelbow
						{
							OFFSET 0.255332 -0.015649 -0.022946
							CHANNELS 3 Zrotation Yrotation Xrotation
							JOINT lwrist
							{
								OFFSET 0.265709 0.012698 -0.007375
								CHANNELS 3 Zrotation Yrotation Xrotation
								End Site
								{
									OFFSET 0.000000 0.000000 0.000000
								}
							}
						}
					}
				}
				JOINT rclavicle
				{
					OFFSET -0.082954 0.112472 -0.023707
					CHANNELS 3 Zrotation Yrotation Xrotation
					JOINT rshoulder
					{
						OFFSET -0.113228 0.046853 -0.008472
						CHANNELS 3 Zrotation Yrotation Xrotation
						JOINT relbow
						{
							OFFSET -0.260127 -0.014369 -0.031269
							CHANNELS 3 Zrotation Yrotation Xrotation
							JOINT rwrist
							{
								OFFSET -0.269108 0.006794 -0.006027
								CHANNELS 3 Zrotation Yrotation Xrotation
								End Site
								{
									OFFSET 0.000000 0.000000 0.000000
								}
							}
						}
					}
				}
			}
		}
	}
}
MOTION
Frames: 17
Frame Time: 0.033333
0.466083 0.226774 0.997449 88.377041 2.129299 94.950399 6.569269 3.462512 -2.894186 2.175707 -4.257320 -5.846968 -0.531707 10.167184 -2.901048 0.000000 -0.000000 0.000000 -2.971744 -2.132485 -6.494539 -0.954091 3.798462 0.998331 5.581567 -8.016272 -3.111611 0.000000 -0.000000 0.000000 0.353098 1.111893 1.684869 1.992463 -3.813446 -3.298491 -1.213239 1.793407 -5.812451 2.461108 6.157685 13.049716 5.929294 5.029117 10.585040 -11.531669 6.599639 -11.717702 -24.061315 -14.858476 17.161233 -19.853776 -53.423605 33.207157 -69.077007 -9.035295 6.172036 13.908877 1.019321 -5.877127 24.979917 20.235905 17.189562 11.900434 39.841790 24.010577 59.118377 0.414973 -11.829001 
0.466264 0.226392 0.997523 88.354400 2.205939 94.914507 6.688720 3.548055 -2.838813 2.109531 -4.633177 -5.844919 -0.137189 10.344581 -2.909484 0.000000 -0.000000 0.000000 -2.833100 -2.379027 -6.480332 -1.018726 4.182087 1.015226 5.712559 -8.137732 -3.207827 0.000000 -0.000000 0.000000 0.369823 1.126069 1.803900 2.077041 -3.753970 -3.218602 -1.334459 1.880623 -5.942952 2.621588 5.714369 12.781002 5.686508 5.273216 10.920397 -11.470199 7.050054 -11.598296 -25.086955 -15.081165 17.239020 -18.986400 -53.210767 37.370751 -69.431120 -1.891662 8.433646 14.529263 0.360040 -5.466125 24.792302 20.736702 17.016027 11.275715 39.122014 27.943446 58.648687 -6.733319 -7.019929 
0.466504 0.225943 0.997687 88.378431 2.308112 94.863747 6.827829 3.704847 -2.745925 2.064986 -5.070263 -5.900260 0.241170 10.543842 -2.932134 0.000000 -0.000000 0.000000 -2.648359 -2.628682 -6.400419 -1.106307 4.623741 0.980656 5.802599 -8.324765 -3.361041 0.000000 -0.000000 0.000000 0.430871 1.069340 1.952433 2.149248 -3.661126 -3.113309 -1.433743 1.887641 -6.082767 2.882062 5.303624 12.301521 5.108052 5.582694 11.340269 -11.663096 7.566867 -11.376946 -25.875480 -14.962327 17.336524 -18.296752 -53.492384 42.743389 -67.940227 5.790864 11.905330 15.264749 -0.522742 -5.053622 24.703168 21.034171 16.718693 10.194796 39.156667 31.486774 56.829465 -12.995654 -2.468177 
0.466652 0.225592 0.997818 88.569872 2.402538 94.895678 6.978962 3.881808 -2.774179 1.974619 -5.657344 -5.986208 0.505078 10.795408 -2.923719 0.000000 -0.000000 0.000000 -2.488224 -2.949787 -6.375876 -1.141220 5.029535 0.950589 5.865628 -8.632536 -3.517559 0.000000 -0.000000 0.000000 0.504877 0.918042 2.048826 2.209253 -3.608751 -3.072659 -1.537589 1.882558 -6.255310 3.121746 4.797188 12.076088 4.675686 5.998154 11.551807 -11.740733 8.174538 -10.893474 -26.706444 -14.885455 17.446269 -17.549770 -53.502480 48.491057 -62.778959 13.346545 16.677526 15.835300 -1.648471 -4.542854 24.830718 21.188407 16.195493 9.129177 39.396157 34.859499 52.786244 -17.849954 2.048036 
0.466778 0.225313 0.997775 88.769111 2.408647 94.926156 7.013179 4.004050 -2.835635 1.944783 -6.201201 -5.951993 0.695055 11.035024 -2.930334 0.000000 -0.000000 0.000000 -2.416501 -3.241152 -6.368533 -1.213150 5.368824 0.969277 6.056534 -8.856205 -3.624369 0.000000 -0.000000 0.000000 0.367760 0.739096 1.881670 2.289487 -3.632444 -2.848087 -1.526199 1.921972 -6.140899 3.403565 4.494450 11.959945 4.360940 6.329974 11.465669 -11.948245 8.644059 -10.585317 -27.326012 -14.635222 17.705263 -15.722505 -53.062282 51.480006 -53.286689 18.286318 23.203045 16.261252 -2.594968 -4.174742 25.051940 20.923409 15.851619 7.592373 39.885026 36.297857 44.799977 -20.619141 6.762581 
0.466808 0.225164 0.997420 88.990706 2.389310 94.922074 7.050000 4.172335 -2.915026 1.854835 -6.784465 -5.835345 0.741054 11.348499 -2.953017 0.000000 -0.000000 0.000000 -2.417643 -3.536655 -6.304044 -1.214704 5.694991 0.981620 6.212925 -9.118084 -3.619516 0.000000 -0.000000 0.000000 0.142964 0.399709 1.561629 2.342251 -3.712970 -2.794323 -1.342885 2.106073 -5.428034 3.290358 4.099280 11.915281 4.111658 6.714772 11.038287 -12.382143 8.747182 -10.481941 -27.324348 -14.150109 17.377272 -14.217279 -52.698364 53.107773 -43.224759 20.312020 29.641622 16.559865 -3.106672 -4.087387 24.670992 20.828932 14.730526 7.410469 39.942893 37.691178 36.933313 -21.712053 11.598453 
0.466789 0.225010 0.997623 89.124860 2.281769 95.046294 6.960583 4.332309 -3.111053 1.813868 -7.184219 -5.745210 0.627288 11.676182 -2.912778 0.000000 -0.000000 0.000000 -2.477169 -3.738667 -6.391671 -1.243537 6.009609 1.017772 6.331407 -9.457542 -3.591949 0.000000 -0.000000 0.000000 0.130971 0.338541 1.706020 2.128666 -3.535430 -3.109800 -1.504643 1.959074 -5.305105 3.772599 3.815787 11.981471 3.759290 6.713787 10.880098 -12.393940 9.433572 -10.200123 -27.518854 -13.967836 16.821344 -12.369592 -52.346978 53.435826 -30.980019 18.492034 36.100032 16.832916 -4.425337 -4.065019 25.534309 20.515433 13.775089 6.381946 39.904410 37.799502 25.964332 -19.879809 16.680050 
0.466822 0.225220 0.997650 89.176848 2.177981 95.190832 6.829804 4.581484 -3.312886 1.848827 -7.660697 -5.661390 0.373959 12.054058 -2.922195 0.000000 -0.000000 0.000000 -2.552696 -3.887757 -6.530135 -1.271934 6.352981 1.071882 6.451055 -9.753664 -3.582213 0.000000 -0.000000 0.000000 0.014615 0.264246 1.480797 2.029193 -3.372035 -2.983505 -1.603806 1.914458 -5.245286 4.143065 3.614475 12.125300 3.529547 6.685829 10.596369 -12.627616 10.077588 -9.953683 -27.746026 -13.883151 16.251228 -10.013367 -51.647287 52.953931 -16.440431 13.909565 42.609703 17.005722 -5.505717 -3.875662 26.602498 20.147159 12.775152 4.837054 39.290842 35.936787 11.876498 -15.160975 20.904535 
0.467024 0.225640 0.997248 89.147771 2.019443 95.387435 6.571404 4.938926 -3.575363 1.993432 -8.150689 -5.594528 -0.116975 12.508260 -3.011841 0.000000 -0.000000 0.000000 -2.719893 -4.023879 -6.751750 -1.247695 6.681016 1.134401 6.531489 -9.981406 -3.505574 0.000000 -0.000000 0.000000 -0.215095 0.181805 1.002133 2.048597 -3.195322 -2.715209 -1.703918 2.110061 -5.118118 3.952227 3.264989 12.384065 3.609731 6.665359 10.111619 -13.202687 10.536889 -9.992348 -27.727088 -14.176190 16.259320 -7.535240 -49.736082 51.947510 1.038550 4.662587 46.993004 17.343679 -6.449204 -3.826025 27.634506 19.982188 11.632305 3.453288 37.571633 31.971885 -6.247308 -6.381913 22.795893 
0.467302 0.226045 0.996618 89.120144 1.888337 95.583510 6.350399 5.179667 -3.886144 2.117084 -8.476855 -5.449668 -0.732740 12.903102 -3.068426 0.000000 -0.000000 0.000000 -2.877408 -4.098100 -6.973212 -1.190139 6.840400 1.151477 6.603922 -10.077677 -3.403306 0.000000 -0.000000 0.000000 -0.416520 0.151327 0.574969 2.096003 -3.099024 -2.534900 -1.733100 2.199847 -5.003768 3.349304 2.946098 12.738612 4.156032 6.924657 9.646902 -14.226850 10.771524 -10.056017 -27.443805 -14.486179 15.873572 -5.002911 -48.071865 48.427379 15.690966 -4.843254 46.368808 18.042814 -7.175596 -3.995734 28.192742 20.129784 9.975015 2.921442 36.160886 26.222306 -19.858134 0.953140 20.423625 
0.467800 0.226329 0.995984 89.088418 1.830719 95.660082 6.233069 5.361778 -4.027394 2.210662 -8.735449 -5.353739 -1.175614 13.218551 -3.142474 0.000000 -0.000000 0.000000 -2.963196 -4.184540 -7.042194 -1.133324 6.992040 1.117464 6.456858 -10.156359 -3.358699 0.000000 -0.000000 0.000000 -0.513759 0.186954 0.312411 2.117169 -3.040951 -2.372727 -1.718891 2.282051 -4.906335 2.757623 2.591776 12.761958 4.620701 7.294486 9.559652 -15.425201 10.866376 -10.178107 -27.133295 -14.845510 15.516576 -2.792982 -47.326276 43.703095 27.604606 -11.376229 42.592484 18.896300 -7.717093 -4.160957 28.538911 20.163060 8.448401 2.452962 35.903733 19.307905 -29.973967 4.474798 15.931150 
0.468484 0.226514 0.994889 89.016004 1.869958 95.541049 6.266404 5.595337 -3.828203 2.273231 -9.079215 -5.515041 -1.374330 13.507852 -3.248683 0.000000 -0.000000 0.000000 -2.994853 -4.247748 -6.847914 -1.028620 7.130715 0.976619 6.148816 -10.244367 -3.226992 0.000000 -0.000000 0.000000 -0.815628 -0.008821 -0.140585 2.374859 -3.134101 -2.156914 -1.329549 2.631577 -4.206953 1.678592 2.147726 12.734411 5.179697 8.067993 9.302198 -16.729369 10.560986 -10.273395 -26.983376 -14.912036 15.331059 -0.832924 -47.835876 36.814421 37.738385 -13.820302 35.096121 19.492417 -7.590214 -4.219314 28.381589 20.450699 7.015397 2.343080 35.964252 11.020048 -37.339275 3.897012 9.731714 
0.469072 0.226543 0.994515 89.017973 1.892038 95.485855 6.296546 5.754403 -3.726435 2.291199 -9.562000 -5.621776 -1.592193 13.980568 -3.286111 0.000000 -0.000000 0.000000 -2.954830 -4.288837 -6.689620 -0.990511 7.620161 0.769848 5.778896 -10.792383 -3.061667 0.000000 -0.000000 0.000000 -0.638666 0.227150 0.401304 2.282964 -3.046861 -2.813601 -1.391302 2.488755 -4.211453 1.064776 1.284448 12.538687 5.682535 8.759110 9.657708 -17.510844 10.524786 -9.776444 -26.719653 -15.207349 14.865409 -0.099268 -49.160862 29.780579 45.855169 -12.224509 25.412577 20.250263 -8.249912 -4.336760 28.629908 20.661678 5.645578 2.715376 36.405012 3.249515 -41.418616 1.505509 2.885669 
0.469645 0.226712 0.993936 89.027280 1.950372 95.334085 6.407967 5.860516 -3.507688 2.255567 -9.876170 -5.674089 -1.810677 14.249281 -3.393853 0.000000 -0.000000 0.000000 -2.943728 -4.298098 -6.419752 -0.899441 7.791746 0.571120 5.459897 -11.044374 -2.875156 0.000000 -0.000000 0.000000 -0.581689 0.270884 0.552301 2.281110 -3.101296 -3.073372 -1.168474 2.516118 -3.820223 0.307483 0.779655 12.564545 6.126080 9.359918 9.458113 -18.399690 10.018063 -9.311739 -26.730907 -15.068878 14.325122 1.840410 -50.921432 20.684430 50.629295 -8.923522 15.478227 20.641087 -8.108077 -4.241238 28.838404 20.484431 4.126085 2.148405 37.392000 -6.452308 -40.624705 -1.722426 -4.661266 
0.470213 0.226922 0.993474 89.071363 2.046926 95.168164 6.606701 5.960544 -3.285573 2.150265 -10.167598 -5.682274 -2.030543 14.481652 -3.530414 0.000000 -0.000000 0.000000 -2.900714 -4.295798 -6.084126 -0.823969 7.958229 0.319939 5.230269 -11.338804 -2.626319 0.000000 -0.000000 0.000000 -0.408889 0.259045 0.812344 2.189117 -3.161595 -3.575390 -0.901048 2.490823 -3.289627 -0.403074 0.341310 12.592442 6.405817 9.904418 9.123352 -19.209177 9.442674 -8.709152 -26.769443 -14.542721 13.095508 4.351707 -53.359007 10.964891 50.917560 -4.825505 5.727147 20.812525 -7.923426 -4.041031 29.142148 20.167992 2.460359 1.309016 38.478078 -13.918115 -35.188038 -3.686919 -10.860936 
0.470505 0.227296 0.993226 89.102760 2.119676 95.067535 6.746456 5.797854 -3.096304 2.101059 -9.928539 -5.762672 -2.024035 14.414489 -3.443314 0.000000 -0.000000 0.000000 -2.896123 -4.131755 -5.840656 -0.780625 7.800103 0.127387 5.062430 -11.450547 -2.421336 0.000000 -0.000000 0.000000 -0.339096 0.191905 0.885104 2.156801 -3.264672 -3.947046 -0.686974 2.618203 -2.761489 -1.023099 -0.073332 12.610204 6.895171 10.177135 8.967093 -19.556631 9.099143 -8.139562 -27.507234 -14.164112 12.464598 8.424099 -55.389566 0.324072 48.611591 -1.169952 -3.418919 20.866149 -7.775414 -4.076575 30.245583 19.875511 1.976103 -1.297914 38.805751 -18.532349 -27.959993 -3.545770 -16.651131 
0.470622 0.227658 0.993012 88.983093 2.067578 95.068058 6.699177 5.241054 -2.907713 2.145517 -8.787563 -6.003333 -1.666465 13.763183 -3.207957 0.000000 -0.000000 0.000000 -3.088875 -3.732479 -5.805937 -0.725373 6.879742 0.110820 4.958434 -10.797016 -2.362307 0.000000 -0.000000 0.000000 -0.653468 0.157097 0.511601 2.378470 -3.408049 -3.687980 -0.486626 2.966344 -2.417390 -1.636151 -0.204943 12.526491 7.596033 10.236782 8.981635 -19.465490 9.305051 -8.286280 -29.163534 -14.378240 13.641897 14.084660 -56.036840 -11.788241 44.499344 1.689187 -11.709200 20.785786 -7.461264 -4.754128 31.281267 19.067865 3.221313 -4.330851 39.149602 -23.263300 -20.769527 -1.911036 -23.182840 
